<svg id="svg" version="1.1" xmlns="http://www.w3.org/2000/svg" xmlns:xlink="http://www.w3.org/1999/xlink" width="400" height="400" viewBox="0, 0, 400,400"><g id="svgg"><path id="path0" d="M73.600 11.794 L 73.600 23.589 61.100 23.694 L 48.600 23.800 48.494 36.094 L 48.388 48.388 36.094 48.494 L 23.800 48.600 23.694 61.100 L 23.589 73.600 11.794 73.600 L 0.000 73.600 0.000 100.000 L 0.000 126.400 11.794 126.400 L 23.589 126.400 23.694 138.900 L 23.800 151.400 48.700 151.503 L 73.600 151.606 73.600 225.000 L 73.600 298.394 48.700 298.497 L 23.800 298.600 23.694 311.100 L 23.589 323.600 11.794 323.600 L 0.000 323.600 0.000 350.000 L 0.000 376.400 11.800 376.400 L 23.600 376.400 23.600 388.200 L 23.600 400.000 187.600 400.000 L 351.600 400.000 351.600 388.200 L 351.600 376.400 364.000 376.400 L 376.400 376.400 376.400 364.000 L 376.400 351.600 388.200 351.600 L 400.000 351.600 400.000 325.000 L 400.000 298.400 388.200 298.400 L 376.400 298.400 376.400 286.000 L 376.400 273.600 351.400 273.600 L 326.400 273.600 326.400 212.600 L 326.400 151.600 339.000 151.600 L 351.600 151.600 351.600 126.606 L 351.600 101.612 363.900 101.506 L 376.200 101.400 376.200 75.000 L 376.200 48.600 363.906 48.494 L 351.612 48.388 351.506 36.094 L 351.400 23.800 338.900 23.694 L 326.400 23.589 326.400 11.794 L 326.400 0.000 300.000 0.000 L 273.600 0.000 273.600 11.794 L 273.600 23.589 261.100 23.694 L 248.600 23.800 248.494 36.094 L 248.388 48.388 236.094 48.494 L 223.800 48.600 223.697 73.500 L 223.594 98.400 212.597 98.400 L 201.600 98.400 201.600 73.400 L 201.600 48.400 189.000 48.400 L 176.400 48.400 176.400 36.000 L 176.400 23.600 164.000 23.600 L 151.600 23.600 151.600 11.800 L 151.600 0.000 112.600 0.000 L 73.600 0.000 73.600 11.794 M149.111 25.423 C 149.994 26.041,150.000 26.124,150.000 37.291 C 150.000 51.634,148.375 50.000,162.639 50.000 C 173.879 50.000,173.959 50.006,174.577 50.889 C 175.138 51.689,175.200 65.338,175.200 187.809 C 175.200 293.078,175.309 323.949,175.680 324.320 C 176.373 325.013,223.627 325.013,224.320 324.320 C 224.691 323.949,224.800 298.633,224.800 212.809 C 224.800 112.965,224.863 101.688,225.423 100.889 C 226.041 100.006,226.124 100.000,237.291 100.000 C 247.194 100.000,248.624 99.921,249.269 99.338 C 249.962 98.711,250.000 97.423,250.000 74.818 C 250.000 56.795,250.117 50.843,250.480 50.480 C 250.830 50.130,253.970 50.000,262.106 50.000 C 269.025 50.000,273.546 49.843,274.026 49.586 C 274.763 49.191,274.800 48.633,274.800 37.786 C 274.800 26.933,274.837 26.363,275.600 25.600 C 276.382 24.818,276.933 24.800,300.000 24.800 C 323.067 24.800,323.618 24.818,324.400 25.600 C 325.163 26.363,325.200 26.933,325.200 37.786 C 325.200 48.633,325.237 49.191,325.974 49.586 C 326.454 49.843,330.975 50.000,337.894 50.000 C 346.030 50.000,349.170 50.130,349.520 50.480 C 350.213 51.173,350.213 98.827,349.520 99.520 C 349.170 99.870,346.030 100.000,337.894 100.000 C 330.975 100.000,326.454 100.157,325.974 100.414 C 325.222 100.816,325.200 101.506,325.200 124.525 C 325.200 145.325,325.124 148.331,324.577 149.111 C 323.959 149.994,323.876 150.000,312.709 150.000 C 302.806 150.000,301.376 150.079,300.731 150.662 C 299.869 151.443,299.556 322.422,300.414 324.026 C 300.923 324.978,323.386 325.254,324.320 324.320 C 324.670 323.970,324.800 320.855,324.800 312.809 C 324.800 303.472,324.896 301.641,325.423 300.889 L 326.045 300.000 350.000 300.000 L 373.955 300.000 374.577 300.889 C 375.520 302.235,375.520 347.765,374.577 349.111 C 373.959 349.994,373.876 350.000,362.709 350.000 C 348.366 350.000,350.000 348.375,350.000 362.639 C 350.000 373.879,349.994 373.959,349.111 374.577 C 347.529 375.686,26.710 375.510,25.600 374.400 C 24.346 373.146,24.346 326.854,25.600 325.600 C 26.388 324.812,26.933 324.800,62.786 324.800 C 98.350 324.800,99.181 324.783,99.586 324.026 C 100.385 322.533,100.140 101.617,99.338 100.731 C 98.564 99.877,77.512 99.591,75.974 100.414 C 75.237 100.808,75.200 101.365,75.200 112.088 C 75.200 123.099,75.181 123.369,74.330 124.274 L 73.461 125.200 49.930 125.200 C 26.933 125.200,26.382 125.182,25.600 124.400 C 24.346 123.146,24.346 76.854,25.600 75.600 C 26.363 74.837,26.933 74.800,37.786 74.800 C 48.633 74.800,49.191 74.763,49.586 74.026 C 49.843 73.546,50.000 69.025,50.000 62.106 C 50.000 53.970,50.130 50.830,50.480 50.480 C 50.830 50.130,53.970 50.000,62.106 50.000 C 69.025 50.000,73.546 49.843,74.026 49.586 C 74.763 49.191,74.800 48.633,74.800 37.786 C 74.800 26.933,74.837 26.363,75.600 25.600 C 76.706 24.494,147.542 24.323,149.111 25.423 " stroke="none" fill="#dce4ec" fill-rule="evenodd"></path><path id="path1" d="M75.600 25.600 C 74.837 26.363,74.800 26.933,74.800 37.786 C 74.800 48.633,74.763 49.191,74.026 49.586 C 73.546 49.843,69.025 50.000,62.106 50.000 C 53.970 50.000,50.830 50.130,50.480 50.480 C 50.130 50.830,50.000 53.970,50.000 62.106 C 50.000 69.025,49.843 73.546,49.586 74.026 C 49.191 74.763,48.633 74.800,37.786 74.800 C 26.933 74.800,26.363 74.837,25.600 75.600 C 24.346 76.854,24.346 123.146,25.600 124.400 C 26.382 125.182,26.933 125.200,49.930 125.200 L 73.461 125.200 74.330 124.274 C 75.181 123.369,75.200 123.099,75.200 112.088 C 75.200 101.365,75.237 100.808,75.974 100.414 C 77.512 99.591,98.564 99.877,99.338 100.731 C 100.140 101.617,100.385 322.533,99.586 324.026 C 99.181 324.783,98.350 324.800,62.786 324.800 C 26.933 324.800,26.388 324.812,25.600 325.600 C 24.346 326.854,24.346 373.146,25.600 374.400 C 26.710 375.510,347.529 375.686,349.111 374.577 C 349.994 373.959,350.000 373.879,350.000 362.639 C 350.000 348.375,348.366 350.000,362.709 350.000 C 373.876 350.000,373.959 349.994,374.577 349.111 C 375.520 347.765,375.520 302.235,374.577 300.889 L 373.955 300.000 350.000 300.000 L 326.045 300.000 325.423 300.889 C 324.896 301.641,324.800 303.472,324.800 312.809 C 324.800 320.855,324.670 323.970,324.320 324.320 C 323.386 325.254,300.923 324.978,300.414 324.026 C 299.556 322.422,299.869 151.443,300.731 150.662 C 301.376 150.079,302.806 150.000,312.709 150.000 C 323.876 150.000,323.959 149.994,324.577 149.111 C 325.124 148.331,325.200 145.325,325.200 124.525 C 325.200 101.506,325.222 100.816,325.974 100.414 C 326.454 100.157,330.975 100.000,337.894 100.000 C 346.030 100.000,349.170 99.870,349.520 99.520 C 350.213 98.827,350.213 51.173,349.520 50.480 C 349.170 50.130,346.030 50.000,337.894 50.000 C 330.975 50.000,326.454 49.843,325.974 49.586 C 325.237 49.191,325.200 48.633,325.200 37.786 C 325.200 26.933,325.163 26.363,324.400 25.600 C 323.618 24.818,323.067 24.800,300.000 24.800 C 276.933 24.800,276.382 24.818,275.600 25.600 C 274.837 26.363,274.800 26.933,274.800 37.786 C 274.800 48.633,274.763 49.191,274.026 49.586 C 273.546 49.843,269.025 50.000,262.106 50.000 C 253.970 50.000,250.830 50.130,250.480 50.480 C 250.117 50.843,250.000 56.795,250.000 74.818 C 250.000 97.423,249.962 98.711,249.269 99.338 C 248.624 99.921,247.194 100.000,237.291 100.000 C 226.124 100.000,226.041 100.006,225.423 100.889 C 224.863 101.688,224.800 112.965,224.800 212.809 C 224.800 298.633,224.691 323.949,224.320 324.320 C 223.627 325.013,176.373 325.013,175.680 324.320 C 175.309 323.949,175.200 293.078,175.200 187.809 C 175.200 65.338,175.138 51.689,174.577 50.889 C 173.959 50.006,173.879 50.000,162.639 50.000 C 148.375 50.000,150.000 51.634,150.000 37.291 C 150.000 26.124,149.994 26.041,149.111 25.423 C 147.542 24.323,76.706 24.494,75.600 25.600 " stroke="none" fill="#2c1c2c" fill-rule="evenodd"></path></g></svg>